<?xml version="1.0" standalone="no"?>
<!DOCTYPE svg PUBLIC "-//W3C//DTD SVG 1.1//EN" "http://www.w3.org/Graphics/SVG/1.1/DTD/svg11.dtd">
<!--Generator: Xara Designer (www.xara.com), SVG filter version: 6.2.0.0-->
<svg stroke-width="0.501" stroke-linejoin="bevel" fill-rule="evenodd" xmlns:xlink="http://www.w3.org/1999/xlink" xmlns="http://www.w3.org/2000/svg" version="1.1" overflow="visible" width="180pt" height="72pt" viewBox="0 0 180 72">
 <defs>
	</defs>
 <g id="Document" fill="none" stroke="black" font-family="Times New Roman" font-size="16" transform="scale(1 -1)">
  <g id="Spread" transform="translate(0 -72)">
   <g id="Layer 1">
    <path d="M 31.913,20.952 C 33.911,20.959 35.796,21.269 37.566,21.883 C 39.336,22.496 40.931,23.366 42.35,24.492 C 43.769,25.618 44.95,26.954 45.89,28.498 L 39.46,32.228 C 38.99,31.386 38.374,30.667 37.618,30.069 C 36.861,29.474 35.997,29.016 35.029,28.699 C 34.06,28.383 33.021,28.223 31.913,28.219 C 29.976,28.231 28.3,28.638 26.88,29.439 C 25.462,30.239 24.365,31.362 23.588,32.811 C 22.811,34.258 22.417,35.959 22.407,37.912 C 22.417,39.865 22.811,41.564 23.588,43.014 C 24.365,44.461 25.462,45.584 26.88,46.385 C 28.3,47.185 29.976,47.592 31.913,47.603 C 33.584,47.594 35.074,47.241 36.385,46.543 C 37.695,45.846 38.721,44.863 39.46,43.597 L 45.89,47.324 C 44.933,48.868 43.743,50.205 42.319,51.33 C 40.895,52.456 39.3,53.327 37.535,53.94 C 35.769,54.553 33.894,54.865 31.913,54.873 C 29.442,54.858 27.178,54.426 25.115,53.571 C 23.052,52.719 21.262,51.525 19.747,49.991 C 18.228,48.458 17.053,46.665 16.219,44.611 C 15.386,42.557 14.964,40.326 14.951,37.912 C 14.964,35.499 15.386,33.265 16.219,31.213 C 17.053,29.16 18.228,27.366 19.747,25.832 C 21.262,24.299 23.052,23.105 25.115,22.251 C 27.178,21.398 29.442,20.964 31.913,20.952 Z" fill-rule="nonzero" stroke-linejoin="round" stroke-linecap="round" stroke="none" stroke-width="0.289" fill="#114e84" marker-start="none" marker-end="none" stroke-miterlimit="79.8403193612775"/>
    <path d="M 52.806,21.575 C 51.759,21.989 50.835,22.602 50.03,23.415 C 49.227,24.23 48.597,25.235 48.138,26.437 C 47.68,27.636 47.449,29.024 47.44,30.598 L 47.44,40.806 L 54.429,44.866 L 54.429,31.623 C 54.437,30.661 54.622,29.866 54.983,29.239 C 55.342,28.612 55.828,28.146 56.438,27.84 C 57.047,27.534 57.729,27.381 58.482,27.382 C 59.342,27.381 60.096,27.551 60.745,27.891 C 61.392,28.232 61.898,28.758 62.262,29.467 C 62.625,30.177 62.81,31.081 62.816,32.181 L 62.816,44.903 L 69.805,44.903 L 69.805,21.605 L 62.816,21.605 L 62.816,23.794 C 62.179,22.922 61.296,22.234 60.166,21.727 C 59.034,21.221 57.697,20.963 56.153,20.953 C 54.968,20.955 53.853,21.162 52.806,21.575 Z" fill-rule="nonzero" stroke-linejoin="round" stroke-linecap="round" stroke="none" stroke-width="0.289" fill="#114e84" marker-start="none" marker-end="none" stroke-miterlimit="79.8403193612775"/>
    <path d="M 79.895,40.755 L 79.895,44.903 L 72.905,44.903 L 72.905,21.605 L 79.895,21.605 L 79.895,32.136 C 79.909,33.284 80.138,34.23 80.582,34.978 C 81.024,35.723 81.598,36.296 82.306,36.695 C 83.014,37.096 83.768,37.352 84.573,37.462 C 85.377,37.574 86.148,37.567 86.883,37.448 L 86.883,45.368 C 85.89,45.369 84.92,45.202 83.975,44.866 C 83.028,44.53 82.194,44.021 81.468,43.339 C 80.745,42.656 80.22,41.795 79.895,40.755 Z" fill-rule="nonzero" stroke-linejoin="round" stroke-linecap="round" stroke="none" stroke-width="0.289" fill="#114e84" marker-start="none" marker-end="none" stroke-miterlimit="79.8403193612775"/>
    <path d="M 89.979,21.605 L 96.968,21.605 L 96.968,44.903 L 89.979,44.903 L 89.979,21.605 Z" fill-rule="nonzero" stroke-linejoin="round" stroke-linecap="round" stroke="none" stroke-width="0.289" fill="#114e84" marker-start="none" marker-end="none" stroke-miterlimit="79.8403193612775"/>
    <path d="M 110.867,20.952 C 112.591,20.962 114.197,21.276 115.687,21.897 C 117.178,22.517 118.483,23.384 119.609,24.498 C 120.737,25.611 121.616,26.913 122.25,28.401 C 122.883,29.889 123.204,31.506 123.215,33.252 C 123.204,34.997 122.883,36.616 122.25,38.102 C 121.616,39.592 120.737,40.892 119.609,42.006 C 118.483,43.12 117.178,43.987 115.687,44.608 C 114.197,45.229 112.591,45.545 110.867,45.553 C 109.145,45.545 107.538,45.229 106.05,44.608 C 104.559,43.987 103.252,43.12 102.124,42.006 C 101,40.892 100.12,39.592 99.487,38.102 C 98.853,36.616 98.531,34.997 98.52,33.252 C 98.531,31.506 98.853,29.889 99.487,28.401 C 100.12,26.913 101,25.611 102.124,24.498 C 103.252,23.384 104.559,22.517 106.05,21.897 C 107.538,21.276 109.145,20.962 110.867,20.952 Z M 110.867,27.754 C 109.849,27.761 108.936,27.99 108.132,28.445 C 107.328,28.899 106.693,29.535 106.225,30.356 C 105.759,31.177 105.519,32.143 105.509,33.252 C 105.519,34.361 105.759,35.326 106.225,36.148 C 106.693,36.969 107.328,37.607 108.132,38.06 C 108.936,38.514 109.849,38.743 110.867,38.75 C 111.887,38.743 112.799,38.514 113.603,38.06 C 114.407,37.607 115.043,36.969 115.51,36.148 C 115.977,35.326 116.215,34.361 116.227,33.252 C 116.215,32.143 115.977,31.177 115.51,30.356 C 115.043,29.535 114.407,28.899 113.603,28.445 C 112.799,27.99 111.887,27.761 110.867,27.754 Z" fill-rule="nonzero" stroke-linejoin="round" stroke-linecap="round" stroke="none" stroke-width="0.289" fill="#114e84" marker-start="none" marker-end="none" stroke-miterlimit="79.8403193612775"/>
    <path d="M 124.745,21.604 L 124.745,50.576 L 131.734,54.638 L 131.734,21.604 L 124.745,21.604 Z" fill-rule="nonzero" stroke-linejoin="round" stroke-linecap="round" stroke="none" stroke-width="0.289" fill="#114e84" marker-start="none" marker-end="none" stroke-miterlimit="79.8403193612775"/>
    <path d="M 134.831,21.604 L 141.821,21.604 L 141.821,44.9 L 134.831,44.9 L 134.831,21.604 Z" fill-rule="nonzero" stroke-linejoin="round" stroke-linecap="round" stroke="none" stroke-width="0.289" fill="#114e84" marker-start="none" marker-end="none" stroke-miterlimit="79.8403193612775"/>
    <path d="M 151.62,38.098 C 151.625,38.519 151.801,38.842 152.145,39.064 C 152.486,39.287 152.965,39.401 153.575,39.403 C 154.338,39.392 154.969,39.204 155.468,38.832 C 155.969,38.46 156.379,37.968 156.699,37.352 L 162.662,40.567 C 162.005,41.671 161.21,42.59 160.276,43.33 C 159.343,44.07 158.309,44.624 157.175,44.996 C 156.039,45.368 154.84,45.553 153.575,45.553 C 152.355,45.553 151.198,45.394 150.105,45.074 C 149.012,44.755 148.041,44.275 147.193,43.637 C 146.344,42.999 145.678,42.202 145.188,41.247 C 144.701,40.294 144.453,39.182 144.443,37.912 C 144.461,36.579 144.744,35.476 145.294,34.603 C 145.841,33.732 146.549,33.029 147.416,32.494 C 148.282,31.96 149.203,31.534 150.175,31.213 C 151.146,30.893 152.067,30.619 152.934,30.39 C 153.8,30.162 154.508,29.918 155.058,29.655 C 155.607,29.394 155.889,29.057 155.906,28.64 C 155.906,28.171 155.697,27.814 155.276,27.567 C 154.858,27.32 154.23,27.197 153.389,27.194 C 152.364,27.2 151.525,27.436 150.868,27.906 C 150.211,28.375 149.731,29.055 149.429,29.943 L 143.372,26.496 C 144.293,24.614 145.608,23.218 147.316,22.309 C 149.022,21.398 151.046,20.945 153.389,20.952 C 154.659,20.948 155.871,21.096 157.026,21.391 C 158.183,21.689 159.214,22.145 160.123,22.763 C 161.031,23.38 161.749,24.172 162.275,25.138 C 162.801,26.104 163.071,27.254 163.082,28.592 C 163.064,30.018 162.782,31.188 162.233,32.106 C 161.686,33.021 160.977,33.753 160.11,34.298 C 159.243,34.843 158.324,35.271 157.35,35.581 C 156.378,35.893 155.459,36.155 154.592,36.369 C 153.725,36.583 153.017,36.817 152.469,37.071 C 151.92,37.325 151.637,37.668 151.62,38.098 Z" fill-rule="nonzero" stroke-linejoin="round" stroke-linecap="round" stroke="none" stroke-width="0.289" fill="#114e84" marker-start="none" marker-end="none" stroke-miterlimit="79.8403193612775"/>
    <path d="M 138.326,46.952 C 139.097,46.961 139.798,47.155 140.429,47.531 C 141.058,47.908 141.563,48.411 141.94,49.042 C 142.317,49.673 142.511,50.373 142.52,51.143 C 142.511,51.916 142.317,52.615 141.94,53.246 C 141.563,53.877 141.058,54.382 140.429,54.758 C 139.798,55.135 139.097,55.328 138.326,55.338 C 137.555,55.328 136.854,55.135 136.223,54.758 C 135.594,54.382 135.091,53.877 134.712,53.246 C 134.335,52.615 134.141,51.916 134.133,51.143 C 134.141,50.373 134.335,49.673 134.712,49.042 C 135.091,48.411 135.594,47.908 136.223,47.531 C 136.854,47.155 137.555,46.961 138.326,46.952 Z" fill-rule="nonzero" stroke-linejoin="round" stroke-linecap="round" stroke="none" stroke-width="0.289" fill="#114e84" marker-start="none" marker-end="none" stroke-miterlimit="79.8403193612775"/>
    <path d="M 93.56,46.951 C 94.331,46.96 95.032,47.154 95.663,47.53 C 96.292,47.907 96.797,48.41 97.174,49.041 C 97.551,49.672 97.745,50.372 97.754,51.142 C 97.745,51.915 97.551,52.614 97.174,53.245 C 96.797,53.876 96.292,54.381 95.663,54.757 C 95.032,55.134 94.331,55.327 93.56,55.337 C 92.789,55.327 92.088,55.134 91.457,54.757 C 90.828,54.381 90.325,53.876 89.946,53.245 C 89.569,52.614 89.375,51.915 89.367,51.142 C 89.375,50.372 89.569,49.672 89.946,49.041 C 90.325,48.41 90.828,47.907 91.457,47.53 C 92.088,47.154 92.789,46.96 93.56,46.951 Z" fill-rule="nonzero" stroke-linejoin="round" stroke-linecap="round" stroke="none" stroke-width="0.289" fill="#114e84" marker-start="none" marker-end="none" stroke-miterlimit="79.8403193612775"/>
   </g>
  </g>
 </g>
</svg>
